Coordinates
version=1
nRows=22
nColumns=24
inDegrees=yes

Units are S.I. units (second, meters, Newtons, ...)
Angles are in degrees.

endheader
time	pelvis_tilt	pelvis_list	pelvis_rotation	pelvis_tx	pelvis_ty	pelvis_tz	hip_flexion_r	hip_adduction_r	hip_rotation_r	knee_angle_r	ankle_angle_r	subtalar_angle_r	mtp_angle_r	hip_flexion_l	hip_adduction_l	hip_rotation_l	knee_angle_l	ankle_angle_l	subtalar_angle_l	mtp_angle_l	lumbar_extension	lumbar_bending	lumbar_rotation
      1.36300000	      1.31929945	      5.40359889	     -4.58122600	      0.17160900	      1.06211666	      0.34663388	     16.61985064	     -6.42845303	     -0.95062579	    -70.72291937	     -5.99601411	    -13.78426938	      6.48903729	      9.19850127	      9.19880079	     -5.88682378	    -11.46169335	      2.11827891	     -2.76298405	      1.14958472	      2.15722117	     -3.38524841	      0.62980133
      1.36716667	      1.29240046	      5.37591662	     -4.54094418	      0.17642412	      1.06265872	      0.34665245	     17.28880813	     -6.31461380	     -0.74684635	    -70.72829848	     -5.34298234	    -14.09428510	      6.42036427	      8.89847903	      9.19519032	     -5.86944838	    -11.41115156	      2.39113914	     -2.74538806	      1.11289403	      2.13737282	     -3.42355716	      0.54222294
      1.37133333	      1.30378876	      5.36287476	     -4.51983280	      0.18115003	      1.06322316	      0.34654680	     17.91770816	     -6.23093859	     -0.51846500	    -70.65717966	     -5.04955946	    -14.22995564	      6.38848652	      8.54594402	      9.22733203	     -5.71966482	    -11.30827003	      2.50412328	     -2.68622712	      1.09636245	      2.05951218	     -3.35491076	      0.47572344
      1.37550000	      1.28857827	      5.35293063	     -4.48302776	      0.18601077	      1.06376898	      0.34640745	     18.54241520	     -6.15286703	     -0.32501983	    -70.53437192	     -4.52429612	    -14.44135124	      6.34207209	      8.21196936	      9.26642731	     -5.62571855	    -11.19803182	      2.72402174	     -2.66830248	      1.07102387	      2.01028005	     -3.32586989	      0.39090231
      1.37966667	      1.28020304	      5.31912593	     -4.42712226	      0.19081669	      1.06432412	      0.34636122	     19.13239775	     -6.03776089	     -0.14372257	    -70.32412653	     -4.07267102	    -14.57400358	      6.29200931	      7.87399227	      9.26988121	     -5.51413452	    -11.10451706	      2.91534698	     -2.64831026	      1.04172527	      1.96989007	     -3.30256067	      0.30246798
      1.38383333	      1.25689341	      5.26760569	     -4.34038163	      0.19562658	      1.06486366	      0.34631221	     19.70575794	     -5.90375797	      0.00861700	    -70.04128982	     -3.57746860	    -14.65349967	      6.21777361	      7.55223622	      9.25274234	     -5.40272367	    -11.02378958	      3.12812152	     -2.63809893	      0.99507551	      1.94252691	     -3.29453773	      0.18660636
      1.38800000	      1.26255803	      5.25081390	     -4.30175286	      0.20042268	      1.06540611	      0.34620320	     20.25196224	     -5.80964763	      0.20808917	    -69.69789166	     -3.26865035	    -14.70938518	      6.17432401	      7.18503326	      9.28649264	     -5.23896591	    -10.88376945	      3.25164946	     -2.60897968	      0.96765309	      1.88563401	     -3.23209867	      0.10255080
      1.39216667	      1.28100257	      5.20284066	     -4.22661165	      0.20523524	      1.06598549	      0.34614213	     20.74323511	     -5.68223831	      0.36434017	    -69.28147834	     -2.82214208	    -14.76645283	      6.11861657	      6.80050786	      9.28213838	     -5.07580242	    -10.76163996	      3.44111798	     -2.62744285	      0.93062843	      1.82234772	     -3.18687974	     -0.00053777
      1.39633333	      1.28538464	      5.16506552	     -4.15347372	      0.21005254	      1.06653201	      0.34607136	     21.23257399	     -5.56463739	      0.52168990	    -68.79831323	     -2.46967454	    -14.78092374	      6.07067099	      6.42577939	      9.29010888	     -4.90429329	    -10.61709306	      3.58316070	     -2.63477021	      0.89735005	      1.75708243	     -3.14240355	     -0.09457954
      1.40050000	      1.29050583	      5.12216046	     -4.06883713	      0.21487302	      1.06706210	      0.34600360	     21.69689082	     -5.44237912	      0.66711728	    -68.25448366	     -2.07534828	    -14.77560460	      6.01608494	      6.04757497	      9.29099088	     -4.72672526	    -10.47689894	      3.74621060	     -2.66790163	      0.85772177	      1.69893599	     -3.10087030	     -0.20135626
      1.40466667	      1.26462661	      5.07221736	     -3.98597952	      0.21965272	      1.06752901	      0.34607510	     22.17622445	     -5.29099323	      0.82337750	    -67.63011438	     -1.89754738	    -14.77850774	      5.99696229	      5.71124923	      9.26592008	     -4.61032014	    -10.34775549	      3.81014167	     -2.67574487	      0.84385997	      1.60739006	     -3.10661032	     -0.24366125
      1.40883333	      1.30356027	      5.01892069	     -3.84351897	      0.22448963	      1.06810064	      0.34587572	     22.54188227	     -5.19055627	      0.89362966	    -66.96562042	     -1.31065454	    -14.70351187	      5.91076186	      5.28454066	      9.27025256	     -4.35843434	    -10.19454667	      4.05747684	     -2.77422522	      0.77570878	      1.52666253	     -3.02282188	     -0.42725747
      1.41300000	      1.27332327	      4.99891801	     -3.78652434	      0.22928108	      1.06849851	      0.34595627	     22.99783833	     -5.06580853	      1.07769999	    -66.23474530	     -1.17553332	    -14.70265686	      5.89367331	      4.93876198	      9.27947645	     -4.23046917	    -10.02550811	      4.09826977	     -2.76688193	      0.76288379	      1.45530001	     -3.03577914	     -0.46536591
      1.41716667	      1.30659242	      4.94580334	     -3.64526302	      0.23413872	      1.06902219	      0.34576680	     23.32588207	     -4.96554025	      1.14193746	    -65.43947091	     -0.66956314	    -14.60247196	      5.79404654	      4.50212159	      9.28308652	     -3.94409602	     -9.83580904	      4.30802909	     -2.89618177	      0.67901293	      1.40350158	     -2.94391801	     -0.67221942
      1.42133333	      1.29945618	      4.93397381	     -3.59268307	      0.23899905	      1.06941576	      0.34578126	     23.70824435	     -4.86114443	      1.31294793	    -64.59446900	     -0.48275496	    -14.58720693	      5.75036208	      4.10593717	      9.31106206	     -3.76980593	     -9.62115321	      4.36976652	     -2.91439458	      0.64267235	      1.39666371	     -2.95019799	     -0.74861676
      1.42550000	      1.24631660	      4.91557669	     -3.50949173	      0.24377280	      1.06970786	      0.34590206	     24.12034811	     -4.73672431	      1.47182666	    -63.68844669	     -0.32257825	    -14.59933986	      5.73134733	      3.78270631	      9.31310690	     -3.65389744	     -9.44598752	      4.43077346	     -2.93424858	      0.62734763	      1.31965194	     -2.97651167	     -0.78575871
      1.42966667	      1.26873271	      4.88301732	     -3.40456981	      0.24872916	      1.07014896	      0.34581274	     24.39685840	     -4.64199686	      1.55905744	    -62.71374978	     -0.00944491	    -14.61307162	      5.68326896	      3.33221511	      9.32847259	     -3.40663142	     -9.20862087	      4.58914413	     -3.01503927	      0.58620201	      1.37846606	     -2.91351296	     -0.89012635
      1.43383333	      1.26040555	      4.85369154	     -3.28466961	      0.25360003	      1.07049371	      0.34579223	     24.69147175	     -4.54388430	      1.64458570	    -61.68353565	      0.23112241	    -14.61075521	      5.63125457	      2.92946761	      9.33366782	     -3.17956834	     -8.99094015	      4.70414946	     -3.09710299	      0.54026464	      1.33307346	     -2.89685656	     -1.00513582
      1.43800000	      1.24160075	      4.84015073	     -3.17435249	      0.25846405	      1.07078021	      0.34579764	     24.98181848	     -4.45672050	      1.74241481	    -60.60440938	      0.42625467	    -14.62449729	      5.57686847	      2.53823216	      9.35241958	     -2.97477758	     -8.77025811	      4.79744485	     -3.17818318	      0.49177593	      1.29273740	     -2.89487447	     -1.12197168
      1.44216667	      1.21311367	      4.82774407	     -3.06830432	      0.26333440	      1.07102044	      0.34583235	     25.26033375	     -4.36859555	      1.83826962	    -59.46721897	      0.58852252	    -14.66454973	      5.52701621	      2.15583754	      9.36802907	     -2.78608758	     -8.54422962	      4.88251724	     -3.25224359	      0.44747866	      1.27366150	     -2.90377839	     -1.22388905
      1.44633333	      1.17417926	      4.82285279	     -2.96079969	      0.26823089	      1.07122403	      0.34586337	     25.52638607	     -4.29065847	      1.92701739	    -58.27678185	      0.72650124	    -14.73004026	      5.47457296	      1.77829364	      9.38977506	     -2.58758145	     -8.30620446	      4.96681909	     -3.32593733	      0.40113649	      1.27141505	     -2.91698556	     -1.32887363
      1.45050000	      1.13021466	      4.82253607	     -2.84133217	      0.27314047	      1.07138305	      0.34588812	     25.77188771	     -4.22526528	      1.99733835	    -57.03535465	      0.83783570	    -14.83119208	      5.41089171	      1.40391737	      9.41390025	     -2.37408387	     -8.07171805	      5.05368872	     -3.41578585	      0.34466400	      1.27452073	     -2.92808472	     -1.45365136
